<svg xmlns="http://www.w3.org/2000/svg" width="313" height="40" viewBox="0 0 313 40"><path fill="#fefefe" d="M14.28 1.278 1.203 25.401l8.414-.002 8.868-16.355 15.806 29.16h8.418L22.695 1.28l-8.416-.002ZM73.89 14.703c-2.254-1.88-5.073-2.82-8.451-2.82-3.349 0-6.275 1.29-8.786 3.874-2.509 2.58-3.764 5.818-3.764 9.716 0 3.897 1.247 7.13 3.74 9.692 2.493 2.566 5.428 3.847 8.81 3.847 3.345 0 6.161-.922 8.451-2.769v2h6.76V12.652h-6.76v2.05Zm-2.203 16.284c-1.468 1.419-3.16 2.128-5.07 2.128-2.084 0-3.8-.691-5.148-2.077-1.348-1.383-2.024-3.24-2.024-5.565 0-2.323.676-4.188 2.024-5.588 1.348-1.405 3.064-2.105 5.148-2.105 1.91 0 3.602.719 5.07 2.155 1.468 1.438 2.203 3.281 2.203 5.538s-.735 4.095-2.203 5.514ZM86.736 38.244h6.762V1.318h-6.762v36.926ZM113.67 23.217l-6.095-1.332c-1.537-.344-2.305-1.06-2.305-2.155 0-.683.272-1.272.819-1.77.547-.496 1.435-.742 2.664-.742 1.366 0 2.484.324 3.354.973.873.65 1.375 1.506 1.513 2.565l6.451-1.284c-.442-2.254-1.662-4.082-3.662-5.487-1.997-1.4-4.481-2.1-7.45-2.1-3.178 0-5.713.787-7.609 2.358-1.895 1.572-2.84 3.607-2.84 6.103 0 1.848.622 3.4 1.869 4.667 1.247 1.263 3.031 2.137 5.351 2.616l5.226 1.075c1.878.413 2.816 1.18 2.816 2.308 0 .754-.358 1.368-1.076 1.846-.718.48-1.69.719-2.918.719-3.21 0-4.968-1.161-5.276-3.487l-6.813 1.385c.307 2.53 1.536 4.419 3.689 5.667 2.152 1.248 4.747 1.871 7.784 1.871 3.414 0 6.138-.734 8.171-2.206 2.03-1.47 3.046-3.59 3.046-6.358 0-1.778-.571-3.308-1.716-4.589-1.142-1.284-2.807-2.164-4.993-2.643ZM124.993 38.244h6.76V12.653h-6.76v25.59ZM128.371.958c-1.16 0-2.134.401-2.918 1.206-.786.803-1.178 1.752-1.178 2.847 0 1.129.383 2.069 1.151 2.82.769.751 1.75 1.128 2.945 1.128 1.163 0 2.135-.377 2.92-1.128.784-.751 1.179-1.691 1.179-2.82 0-1.095-.395-2.044-1.178-2.847-.786-.805-1.758-1.206-2.92-1.206ZM149.826 18.09c3.345 0 5.447 1.691 6.3 5.076l6.504-1.846c-.854-2.838-2.448-5.12-4.789-6.846-2.338-1.728-5.01-2.59-8.015-2.59-3.823 0-7.061 1.272-9.707 3.82-2.646 2.547-3.97 5.804-3.97 9.77 0 3.966 1.324 7.214 3.97 9.744 2.646 2.53 5.884 3.796 9.707 3.796 3.073 0 5.797-.872 8.17-2.617 2.374-1.742 3.917-4.068 4.634-6.975l-6.248-1.589c-1.094 3.317-3.28 4.975-6.556 4.975-2.117 0-3.833-.676-5.148-2.026-1.316-1.35-1.973-3.12-1.973-5.308 0-2.188.657-3.966 1.973-5.334 1.315-1.368 3.031-2.05 5.148-2.05ZM188.733 15.808c-2.682-2.515-5.931-3.772-9.758-3.772-3.892 0-7.187 1.257-9.883 3.772-2.7 2.511-4.048 5.735-4.048 9.665 0 3.933 1.349 7.154 4.048 9.668 2.696 2.512 5.99 3.77 9.883 3.77 3.827 0 7.076-1.258 9.758-3.77 2.682-2.514 4.02-5.735 4.02-9.668 0-3.93-1.338-7.154-4.02-9.665Zm-4.738 15.179c-1.469 1.419-3.142 2.128-5.02 2.128-1.946 0-3.662-.7-5.145-2.1-1.488-1.405-2.23-3.252-2.23-5.542s.742-4.137 2.23-5.537c1.483-1.401 3.199-2.105 5.145-2.105 1.878 0 3.551.71 5.02 2.128 1.468 1.419 2.203 3.257 2.203 5.514s-.735 4.095-2.203 5.514ZM200.522 9.694c0 2.519-1.974 4.496-4.544 4.496-2.542 0-4.57-1.977-4.57-4.496 0-2.464 2.028-4.441 4.57-4.441 2.57 0 4.544 1.977 4.544 4.441m-7.979 0c0 1.977 1.46 3.548 3.462 3.548 1.948 0 3.381-1.571 3.381-3.52 0-1.978-1.433-3.575-3.408-3.575-1.974 0-3.435 1.597-3.435 3.547m2.732 2.329h-1.028V7.582c.406-.081.974-.136 1.704-.136.839 0 1.217.136 1.542.325.243.19.433.542.433.975 0 .488-.38.867-.92 1.03v.054c.433.162.676.487.811 1.083.136.677.217.948.325 1.11h-1.109c-.135-.162-.216-.569-.351-1.083-.082-.488-.352-.704-.92-.704h-.487v1.787Zm.027-2.519h.487c.568 0 1.028-.189 1.028-.65 0-.406-.298-.676-.947-.676-.27 0-.46.027-.568.054v1.272ZM213.857 22.235c1.648 0 3.373-1.108 3.373-3.609 0-2.513-1.725-3.622-3.373-3.622-1.635 0-3.36 1.109-3.36 3.622 0 2.501 1.725 3.61 3.36 3.61Zm0-6.096c1.017 0 1.957.76 1.957 2.487 0 1.689-.94 2.475-1.957 2.475-1.004 0-1.944-.76-1.944-2.475 0-1.753.94-2.487 1.944-2.487ZM224.324 22.068v-6.935h-1.339v3.764c0 1.366-.554 2.204-1.674 2.204-1.21 0-1.377-.915-1.377-1.92v-4.048h-1.339v4.409c0 1.675.631 2.693 2.266 2.693 1.043 0 1.712-.45 2.111-1.147v.98h1.352ZM227.582 18.433c0-1.457.54-1.96 1.57-1.96.22 0 .451.014.695.04V15.12c-.115-.013-.257-.013-.373-.013-.862.013-1.558.464-1.918 1.25v-1.224h-1.313v6.935h1.339v-3.635ZM235.513 21.088c.424.71 1.145 1.147 2.163 1.147 1.609 0 2.986-1.353 2.986-3.622 0-2.255-1.377-3.609-2.986-3.609-1.018 0-1.738.438-2.163 1.147v-1.018h-1.34v9.19h1.34v-3.235Zm1.854-4.962c1.107 0 1.866.928 1.866 2.487 0 1.56-.76 2.501-1.866 2.501-1.03 0-1.906-.786-1.906-2.5 0-1.715.876-2.488 1.906-2.488ZM248.207 20.031h-1.352c-.283.658-.85 1.057-1.815 1.057-1.082 0-1.893-.799-2.021-2.075h5.278c.141-2.256-1.107-4.009-3.244-4.009-1.97 0-3.412 1.431-3.412 3.584 0 2.01 1.21 3.647 3.45 3.647 1.764 0 2.794-1.056 3.116-2.204ZM245.04 16.1c1.107 0 1.828.825 1.867 1.856h-3.863c.18-1.315.953-1.856 1.996-1.856ZM251.078 18.433c0-1.457.54-1.96 1.57-1.96.22 0 .451.014.696.04V15.12c-.116-.013-.258-.013-.373-.013-.863.013-1.558.464-1.919 1.25v-1.224h-1.313v6.935h1.34v-3.635ZM254.773 22.068h1.34v-5.917h1.338v-1.018h-1.339v-.477c0-.722.142-.863.824-.863h.515v-1.07h-.605c-1.622 0-2.073.412-2.073 1.946v.464h-.965v1.018h.965v5.917ZM261.648 15.004c-1.635 0-3.36 1.109-3.36 3.622 0 2.501 1.725 3.61 3.36 3.61 1.648 0 3.373-1.109 3.373-3.61 0-2.513-1.725-3.622-3.373-3.622Zm0 6.097c-1.004 0-1.944-.76-1.944-2.475 0-1.753.94-2.487 1.944-2.487 1.017 0 1.957.76 1.957 2.487 0 1.689-.94 2.475-1.957 2.475ZM267.829 18.433c0-1.457.54-1.96 1.57-1.96.219 0 .45.014.695.04V15.12c-.116-.013-.257-.013-.373-.013-.863.013-1.558.464-1.918 1.25v-1.224h-1.313v6.935h1.339v-3.635ZM279.879 18.06v4.008h1.339v-4.37c0-1.611-.631-2.694-2.253-2.694-.902 0-1.713.361-2.292 1.225-.309-.774-.94-1.225-2.008-1.225-.992 0-1.648.451-2.047 1.135v-1.006h-1.34v6.935h1.34v-3.725c0-1.38.528-2.217 1.596-2.217 1.21 0 1.365.928 1.365 1.933v4.009h1.339v-3.725c0-1.38.54-2.217 1.596-2.217 1.21 0 1.365.928 1.365 1.933ZM287.411 21.153c.026.438.064.644.116.915h1.287c-.129-.619-.193-1.47-.193-2.5 0-.297.026-1.496.026-1.664.026-2.075-1.004-2.939-2.794-2.939-1.583 0-2.793.89-2.91 2.36h1.353c.051-.851.579-1.328 1.506-1.328.85 0 1.493.412 1.493 1.637v.142c-2.69.283-4.673.734-4.673 2.423 0 1.263 1.069 2.036 2.472 2.036 1.12 0 1.905-.386 2.317-1.082Zm-2.021.051c-.811 0-1.313-.4-1.313-1.03 0-.903 1.133-1.2 3.282-1.406v.503c0 1.38-.862 1.933-1.97 1.933ZM291.763 18.343c0-1.38.566-2.217 1.725-2.217 1.262 0 1.43.928 1.43 1.933v4.009h1.338v-4.37c0-1.611-.644-2.694-2.317-2.694-1.082 0-1.777.451-2.176 1.135v-1.006h-1.339v6.935h1.34v-3.725ZM300.865 21.088c-.952 0-1.853-.773-1.853-2.487 0-1.69.888-2.45 1.853-2.45.876 0 1.584.542 1.725 1.328h1.34c-.207-1.353-1.417-2.475-3-2.475-2.047 0-3.347 1.547-3.347 3.61 0 2.088 1.261 3.621 3.257 3.621 1.532 0 2.883-1.018 3.154-2.474h-1.352c-.18.825-.927 1.327-1.777 1.327ZM308.32 15.004c-1.97 0-3.412 1.431-3.412 3.584 0 2.01 1.21 3.647 3.45 3.647 1.764 0 2.794-1.056 3.116-2.204h-1.352c-.283.658-.85 1.057-1.815 1.057-1.081 0-1.892-.799-2.021-2.075h5.278c.142-2.256-1.107-4.009-3.244-4.009Zm-2.008 2.952c.18-1.315.952-1.856 1.995-1.856 1.107 0 1.828.825 1.867 1.856h-3.862ZM214.462 28.887c-1.017 0-1.738.439-2.163 1.148v-1.019h-1.338v9.19h1.338v-3.234c.425.708 1.146 1.147 2.163 1.147 1.61 0 2.987-1.354 2.987-3.622 0-2.256-1.378-3.61-2.987-3.61Zm-.309 6.11c-1.03 0-1.905-.786-1.905-2.5 0-1.715.875-2.488 1.905-2.488 1.107 0 1.867.928 1.867 2.488s-.76 2.5-1.867 2.5ZM220.217 30.24v-1.224h-1.313v6.935h1.34v-3.635c0-1.456.54-1.96 1.57-1.96.219 0 .45.014.695.04v-1.393c-.116-.012-.258-.012-.373-.012-.863.012-1.558.464-1.919 1.25ZM226.59 28.887c-1.635 0-3.36 1.109-3.36 3.623 0 2.5 1.725 3.609 3.36 3.609 1.648 0 3.373-1.109 3.373-3.61 0-2.513-1.725-3.622-3.373-3.622Zm0 6.098c-1.004 0-1.944-.761-1.944-2.475 0-1.753.94-2.488 1.944-2.488 1.017 0 1.957.76 1.957 2.488 0 1.688-.94 2.475-1.957 2.475ZM233.04 27.237h-1.338v1.78h-1.056v1.018h1.056v4.137c0 1.431.309 1.78 1.712 1.78h.978v-1.07h-.566c-.67 0-.785-.181-.785-.89v-3.957h1.364v-1.019h-1.364v-1.779ZM238.77 28.887c-1.97 0-3.412 1.431-3.412 3.584 0 2.01 1.21 3.648 3.45 3.648 1.764 0 2.794-1.057 3.116-2.204h-1.352c-.283.657-.85 1.057-1.815 1.057-1.081 0-1.893-.8-2.021-2.076h5.278c.142-2.256-1.107-4.009-3.244-4.009Zm-2.009 2.952c.18-1.315.953-1.856 1.996-1.856 1.107 0 1.828.825 1.867 1.856h-3.863ZM246.263 34.972c-.953 0-1.854-.774-1.854-2.488 0-1.689.888-2.45 1.854-2.45.875 0 1.583.542 1.725 1.328h1.339c-.206-1.353-1.416-2.475-3-2.475-2.047 0-3.347 1.547-3.347 3.61 0 2.088 1.262 3.622 3.257 3.622 1.532 0 2.884-1.019 3.154-2.475h-1.352c-.18.825-.926 1.328-1.776 1.328ZM252.392 27.237h-1.34v1.78h-1.055v1.018h1.056v4.137c0 1.431.309 1.78 1.712 1.78h.978v-1.07h-.566c-.67 0-.785-.181-.785-.89v-3.957h1.364v-1.019h-1.364v-1.779ZM258.146 31.852l-.991-.193c-.631-.129-.966-.348-.966-.864 0-.567.708-.838 1.365-.838.785 0 1.377.284 1.57.993h1.327c-.258-1.34-1.378-2.076-2.768-2.076-1.52 0-2.807.748-2.807 1.973 0 1.302.979 1.766 2.021 1.972l1.043.206c.721.142 1.326.4 1.326 1.044 0 .619-.67.98-1.532.98-.965 0-1.48-.464-1.66-1.25h-1.365c.167 1.301 1.236 2.32 2.986 2.32 1.597 0 2.91-.8 2.91-2.204 0-1.354-1.146-1.805-2.459-2.063ZM267.468 34.185l-1.674-5.169h-1.48l2.497 6.922-.051.155c-.335.993-.644 1.044-1.365 1.044h-.528v1.07h.644c1.558 0 1.97-.464 2.536-2.101l2.446-7.09h-1.39l-1.635 5.17ZM274.42 28.887c-1.635 0-3.36 1.109-3.36 3.623 0 2.5 1.725 3.609 3.36 3.609 1.648 0 3.373-1.109 3.373-3.61 0-2.513-1.725-3.622-3.373-3.622Zm0 6.098c-1.004 0-1.944-.761-1.944-2.475 0-1.753.94-2.488 1.944-2.488 1.017 0 1.957.76 1.957 2.488 0 1.688-.94 2.475-1.957 2.475ZM283.548 32.78c0 1.367-.554 2.205-1.674 2.205-1.21 0-1.377-.916-1.377-1.921v-4.048h-1.339v4.409c0 1.675.631 2.694 2.266 2.694 1.043 0 1.712-.451 2.111-1.147v.98h1.352v-6.936h-1.339v3.764ZM288.119 30.24v-1.224h-1.313v6.935h1.339v-3.635c0-1.456.54-1.96 1.57-1.96.22 0 .451.014.696.04v-1.393c-.116-.012-.258-.012-.374-.012-.862.012-1.558.464-1.918 1.25ZM294.556 31.852l-.99-.193c-.632-.129-.966-.348-.966-.864 0-.567.708-.838 1.364-.838.785 0 1.378.284 1.57.993h1.327c-.258-1.34-1.378-2.076-2.768-2.076-1.52 0-2.807.748-2.807 1.973 0 1.302.979 1.766 2.022 1.972l1.042.206c.721.142 1.326.4 1.326 1.044 0 .619-.669.98-1.532.98-.965 0-1.48-.464-1.66-1.25h-1.365c.167 1.301 1.236 2.32 2.987 2.32 1.596 0 2.91-.8 2.91-2.204 0-1.354-1.146-1.805-2.46-2.063Z"/></svg>