<?xml version="1.0" encoding="utf-8"?>
<!-- Generator: Adobe Illustrator 19.2.1, SVG Export Plug-In . SVG Version: 6.00 Build 0)  -->
<svg version="1.1" id="Vrstva_1" xmlns="http://www.w3.org/2000/svg" xmlns:xlink="http://www.w3.org/1999/xlink" x="0px" y="0px"
	 width="379.5px" height="151.4px" viewBox="0 0 379.5 151.4" style="enable-background:new 0 0 379.5 151.4;" xml:space="preserve"
	>
<style type="text/css">
	.st0{fill:#FFFFFF;}
	.st1{fill:#00A79D;}
	.st2{fill:#FFFFFF;}
</style>
<path class="st0" d="M89.9,64"/>
<path class="st0" d="M90,64.2"/>
<path class="st0" d="M89.4,66.3"/>
<path class="st1" d="M65.2,41c-18.3,0-33.1,14.8-33.1,33.1c0,18.3,14.8,33.1,33.1,33.1s33.1-14.8,33.1-33.1
	C98.3,55.9,83.5,41,65.2,41z M91.6,79.6c-0.1,0.6-0.3,1.2-0.5,2l0,0.1L91,81.8c-0.1,0.5-0.3,0.9-0.4,1.3l-0.1,0.2
	c-0.6,1.7-1.4,3.3-2.3,4.8c-0.9,1.5-2,2.9-3.1,4.2c-1.2,1.3-2.5,2.4-3.8,3.5c-1.4,1-2.9,1.9-4.4,2.7c-1.6,0.8-3.2,1.4-4.9,1.8
	c-1.7,0.4-3.5,0.7-5.2,0.8c-0.5,0-1,0-1.5,0c-1.3,0-2.7-0.1-4-0.3c-1.8-0.3-3.6-0.7-5.3-1.3c-1.7-0.6-3.3-1.4-4.8-2.3
	c-1.5-0.9-2.9-2-4.2-3.1c-1.3-1.2-2.4-2.5-3.5-3.8c-1-1.4-1.9-2.9-2.7-4.4c-0.8-1.6-1.4-3.2-1.8-4.9c-0.4-1.7-0.7-3.5-0.8-5.2
	c0-0.9,0-1.7,0-2.6l0,0c0-1,0.1-1.9,0.3-2.9c0,0,0-0.1,0-0.1c0.1-0.4,0.1-0.7,0.2-1.1c0-0.1,0-0.1,0-0.2c0-0.2,0.1-0.3,0.1-0.5
	c0-0.1,0.1-0.3,0.1-0.4c0-0.1,0-0.1,0-0.2c0.1-0.3,0.1-0.5,0.2-0.8c0-0.1,0.1-0.3,0.1-0.4c0.1-0.3,0.2-0.6,0.3-0.9
	c0-0.1,0.1-0.2,0.1-0.2c0.1-0.3,0.2-0.7,0.4-1c0-0.1,0.1-0.1,0.1-0.2c0.1-0.1,0.1-0.3,0.2-0.4c0.1-0.2,0.2-0.4,0.3-0.6
	c0,0,0-0.1,0-0.1c0,0,0-0.1,0-0.1c0.1-0.3,0.3-0.6,0.5-1c0-0.1,0.1-0.2,0.1-0.2c0.2-0.3,0.3-0.6,0.5-0.9c0.1-0.1,0.1-0.2,0.2-0.3
	c0.2-0.3,0.3-0.5,0.5-0.8c0.1-0.1,0.2-0.3,0.2-0.4c0.1-0.1,0.1-0.2,0.2-0.3c0.1-0.1,0.2-0.2,0.2-0.3c0.1-0.1,0.1-0.2,0.2-0.2
	c0.1-0.1,0.1-0.1,0.2-0.2c0.1-0.2,0.3-0.3,0.4-0.5c0.1-0.2,0.3-0.4,0.4-0.6c0.1-0.1,0.2-0.3,0.3-0.4c0.2-0.2,0.4-0.4,0.5-0.6
	c0.1-0.1,0.2-0.2,0.3-0.3c0.2-0.2,0.4-0.5,0.6-0.7c0,0,0.1-0.1,0.1-0.1c0,0,0.1-0.1,0.1-0.1c0.1-0.1,0.3-0.3,0.4-0.4
	c0.1-0.1,0.2-0.2,0.3-0.3c0.1-0.1,0.2-0.2,0.3-0.2c0.2-0.2,0.5-0.4,0.7-0.6c0.1-0.1,0.2-0.2,0.3-0.3c0.2-0.2,0.5-0.4,0.7-0.5
	c0.1-0.1,0.3-0.2,0.4-0.3c0.2-0.1,0.4-0.3,0.6-0.4c0.1,0,0.1-0.1,0.2-0.1c0.1-0.1,0.3-0.2,0.4-0.2c0.1-0.1,0.2-0.2,0.4-0.2
	c0,0,0.1-0.1,0.1-0.1c0.3-0.2,0.6-0.3,0.9-0.5c0.1,0,0.1-0.1,0.2-0.1c0.9-0.5,1.7-0.9,2.6-1.3c1.6-0.7,3.3-1.2,5.1-1.6
	c0.7-0.1,1.5-0.3,2.2-0.3c0.1,0,0.3,0,0.4-0.1c0.1,0,0.3,0,0.4,0c0.3,0,0.6-0.1,1-0.1c0.1,0,0.1,0,0.2,0c0.4,0,0.8,0,1.2,0
	c0,0,0,0,0,0c0,0,0.1,0,0.1,0c0.3,0,0.7,0,1,0c0.1,0,0.1,0,0.2,0c0.1,0,0.3,0,0.4,0c0.3,0,0.6,0,0.8,0.1c0.3,0,0.6,0.1,0.9,0.1
	c0.1,0,0.2,0,0.3,0c0.4,0.1,0.8,0.1,1.2,0.2c0,0,0,0,0,0c0.1,0,0.3,0,0.4,0.1c1.7,0.4,3.4,0.9,5.1,1.6c1.6,0.7,3.1,1.5,4.6,2.5
	c0.2,0.1,0.3,0.2,0.5,0.4c0,0,0,0,0.1,0c0,0,0,0,0,0c0.6,0.5,1.3,0.9,1.9,1.5c0.1,0,0.1,0.1,0.2,0.1c0.5,0.4,0.9,0.8,1.3,1.3
	c0.1,0.1,0.2,0.2,0.3,0.3c0,0,0.1,0.1,0.1,0.1l0.1,0.1c1,1.1,2,2.3,2.8,3.5l0,0l0.2,0.4c0.2,0.3,0.2,0.5,0.2,0.7
	c0,0.2-0.2,0.4-0.5,0.6L83.9,63c-0.1,0.1-0.2,0.1-0.3,0.1c-0.3,0.1-0.6,0.2-1-0.4l-0.4-0.6l0,0l-0.1-0.1l0,0
	c-0.1-0.1-0.2-0.2-0.3-0.4c-0.2-0.3-0.5-0.6-0.7-0.9c-0.1-0.1-0.2-0.3-0.3-0.4c0,0-0.1-0.1-0.1-0.1c-0.2-0.2-0.3-0.3-0.5-0.5
	c-0.3-0.3-0.5-0.5-0.8-0.8c-0.3-0.3-0.7-0.6-1.1-0.9c0,0-0.1,0-0.1-0.1c-0.5-0.4-0.9-0.7-1.4-1.1c-0.2-0.1-0.3-0.2-0.5-0.3
	c-0.3-0.2-0.6-0.4-0.9-0.6c-0.2-0.1-0.4-0.2-0.6-0.4c-0.1,0-0.2-0.1-0.2-0.1c-0.4-0.2-0.8-0.4-1.1-0.5c-0.2-0.1-0.4-0.2-0.5-0.2
	c-0.2-0.1-0.3-0.1-0.5-0.2c-0.1-0.1-0.3-0.1-0.5-0.2c-0.3-0.1-0.6-0.2-0.9-0.3c-0.2-0.1-0.4-0.1-0.5-0.2c0,0,0,0,0,0
	c-0.5-0.1-1-0.2-1.5-0.3c-0.4-0.1-0.8-0.1-1.1-0.2c-0.3,0-0.5-0.1-0.8-0.1c-0.7-0.1-1.3-0.1-2-0.1c-0.5,0-1,0-1.5,0.1
	c-0.2,0-0.4,0-0.7,0.1c-0.4,0.1-0.9,0.1-1.3,0.2c-0.1,0-0.3,0.1-0.4,0.1c-0.5,0.1-1,0.2-1.5,0.3c-0.1,0-0.2,0.1-0.3,0.1
	c-0.5,0.1-1,0.3-1.5,0.5c-0.5,0.2-0.9,0.4-1.3,0.6c-0.4,0.2-0.7,0.4-1.1,0.6c-0.2,0.1-0.4,0.2-0.7,0.4c-0.3,0.2-0.6,0.4-0.9,0.5
	c-0.3,0.2-0.6,0.3-0.8,0.5c-0.3,0.2-0.6,0.5-0.9,0.7c-0.2,0.2-0.5,0.4-0.7,0.6c-0.4,0.4-0.8,0.8-1.2,1.2c0,0-0.1,0.1-0.1,0.1
	c-0.3,0.3-0.6,0.7-0.9,1c-0.1,0.2-0.3,0.3-0.4,0.5c-0.3,0.4-0.6,0.8-0.8,1.2c-0.1,0.1-0.2,0.3-0.3,0.4c0,0.1-0.1,0.1-0.1,0.2
	c-0.2,0.4-0.5,0.8-0.7,1.2c0,0.1-0.1,0.2-0.1,0.2c-0.1,0.1-0.1,0.2-0.2,0.3c-0.1,0.2-0.2,0.4-0.3,0.7c-0.2,0.4-0.3,0.7-0.5,1.1
	c-0.2,0.5-0.4,1.1-0.6,1.6c0,0,0,0.1,0,0.1c-0.2,0.6-0.3,1.2-0.4,1.8c0,0.1,0,0.2-0.1,0.3c-0.1,0.6-0.2,1.2-0.2,1.7
	c0,0.1,0,0.1,0,0.2c0,0.6-0.1,1.2-0.1,1.8c0,1.4,0.1,2.8,0.4,4.1c0.3,1.3,0.7,2.7,1.2,3.9c0.5,1.2,1.2,2.4,1.9,3.5
	c0.3,0.4,0.5,0.7,0.8,1.1c0.2,0.3,0.5,0.6,0.7,0.9c0.2,0.3,0.5,0.5,0.7,0.8c0.2,0.2,0.3,0.3,0.5,0.5c0.9,0.9,1.9,1.7,2.9,2.4
	c1.1,0.8,2.3,1.4,3.5,1.9c1.3,0.5,2.6,0.9,3.9,1.2c1.4,0.3,2.8,0.4,4.2,0.4c1.4,0,2.8-0.1,4.2-0.4c1.3-0.3,2.7-0.7,3.9-1.2
	c1.2-0.5,2.4-1.2,3.5-1.9c0.4-0.3,0.8-0.5,1.1-0.8c0.3-0.2,0.6-0.4,0.8-0.7c0.2-0.2,0.5-0.4,0.7-0.7c0.2-0.2,0.4-0.4,0.6-0.6
	c0.9-0.9,1.7-1.9,2.4-2.9c0.8-1.1,1.4-2.3,1.9-3.5c0.3-0.7,0.6-1.5,0.8-2.3c-0.7,0-1.4,0-1.6,0c-1.7,0-5.5,0-7.2,0
	c-1.1,0-2.1,0-3.1-0.6c-1.8-0.9-2.8-2.8-3.7-4.5c-0.5-0.9-1-1.9-1.5-2.8c-0.4-0.7-0.8-1.4-1.3-1.9c-1.4-1.3-3-0.3-3.8,1.1
	c-1,1.7-1.8,3.5-2.8,5.2c-0.5,0.9-1.1,1.7-1.9,2.3c-0.3,0.3-0.7,0.5-1.1,0.7c-0.1,0.1-0.6,0.4-1.2,0.4c-1.6,0-1.8,0-3.4,0
	c-0.7,0-0.6,0-1.2,0c-0.3,0-0.3,0-0.6,0l-0.4,0c-0.7,0-0.9-0.4-1-1l-0.6-3.7c0-0.7,0.3-1,1-1l0.7,0c0,0,0.1,0,0.1,0h3.3
	c0,0,0,0,0.1,0c0.4,0,0.8-0.1,1-0.3c0,0,0,0,0,0c0,0,0.1,0,0.1-0.1c1.2-0.7,1.8-2.5,2.3-3.6c0.8-1.8,1.6-3.7,3.1-5.1
	c1.2-1.2,2.7-1.6,4.3-1.6c1.1,0,2.1,0,3.2,0.3c1.8,0.5,3.1,2.1,4,3.7c1,1.7,1.7,3.6,2.6,5.3c0.7,1.3,1.7,1.3,3,1.3
	c1.4,0,4.9,0,6.3,0c0.4,0,6.2,0,6.2,0c0.7,0,1.9-0.1,2,0.8c0.1,0.6,0,1.8-0.4,4.1C91.7,79.2,91.6,79.4,91.6,79.6z"/>
<g>
	<path class="st2" d="M127.3,41c1.5,0,3.1,0.1,4.8,0.3c1.7,0.2,3.1,0.5,4.3,0.9c0.6,0.2,0.9,0.5,1.1,0.9c0.1,0.4,0.2,0.8,0.2,1.3
		v20.3c0,1.4-0.1,2.7-0.3,3.8c-0.2,1.2-0.6,2.2-1.3,3.1c-0.7,0.9-1.7,1.5-3,2c-1.3,0.5-3.1,0.7-5.4,0.7c-1.2,0-2.6-0.1-4.1-0.2
		c-1.5-0.2-2.7-0.4-3.7-0.9c-0.5-0.2-0.8-0.4-0.9-0.6c-0.1-0.2-0.1-0.5,0-0.7l0.4-1.8c0.1-0.4,0.2-0.6,0.4-0.7c0.2-0.1,0.5-0.1,1,0
		c1.1,0.2,2.2,0.3,3.4,0.4c1.2,0.1,2.3,0.1,3.2,0.1c1,0,1.9-0.1,2.5-0.2s1.2-0.4,1.6-0.7s0.6-0.8,0.8-1.3c0.1-0.5,0.2-1.2,0.2-1.9
		v-1.6c-1.2,0.4-2.3,0.8-3.3,0.9c-1,0.2-1.8,0.2-2.6,0.2c-2,0-3.6-0.3-4.8-0.9c-1.2-0.6-2.2-1.4-3-2.4c-0.7-1-1.2-2.3-1.5-3.7
		c-0.3-1.5-0.4-3.1-0.4-4.9c0-1.9,0.2-3.6,0.5-5.1c0.3-1.5,0.9-2.8,1.7-3.9c0.8-1.1,1.9-1.9,3.2-2.5C123.5,41.3,125.2,41,127.3,41z
		 M122.2,52.9c0,1.5,0.1,2.7,0.3,3.7c0.2,1,0.4,1.8,0.8,2.4c0.4,0.6,0.8,1,1.4,1.3c0.6,0.3,1.3,0.4,2.1,0.4c0.7,0,1.5-0.1,2.5-0.2
		c0.9-0.1,1.9-0.3,3-0.6V46.1c-0.7-0.1-1.5-0.2-2.4-0.3c-0.8-0.1-1.7-0.1-2.4-0.1c-0.7,0-1.4,0.1-2.1,0.2c-0.6,0.2-1.2,0.5-1.7,1
		c-0.5,0.5-0.9,1.2-1.1,2.2C122.4,50.1,122.2,51.3,122.2,52.9z"/>
	<path class="st2" d="M157.4,62.3c-1.2,0.9-2.6,1.7-4.1,2.3c-1.5,0.6-3.1,0.9-4.7,0.9c-1.3,0-2.3-0.2-3.2-0.5s-1.5-0.8-2-1.4
		c-0.5-0.6-0.8-1.3-1.1-2.1c-0.2-0.8-0.3-1.8-0.3-2.8c0-2.8,0.7-4.9,2.2-6.1s3.8-1.9,6.8-1.9h6.1v-1.3c0-0.7-0.1-1.3-0.2-1.8
		c-0.1-0.5-0.4-0.9-0.8-1.2c-0.4-0.3-0.9-0.5-1.5-0.7c-0.6-0.1-1.5-0.2-2.4-0.2c-0.4,0-0.9,0-1.4,0c-0.6,0-1.1,0.1-1.7,0.1
		c-0.6,0-1.2,0.1-1.8,0.1c-0.6,0.1-1.1,0.1-1.6,0.1c-0.5,0.1-0.8,0.1-1,0c-0.2,0-0.3-0.2-0.4-0.6l-0.4-1.8c-0.1-0.3,0-0.6,0.1-0.8
		s0.5-0.4,1-0.6c0.5-0.2,1.1-0.3,1.8-0.5c0.7-0.1,1.4-0.2,2.2-0.3s1.5-0.1,2.2-0.2c0.7,0,1.4-0.1,1.9-0.1c2.1,0,3.7,0.2,5,0.6
		c1.2,0.4,2.2,1,2.8,1.8c0.6,0.8,1.1,1.7,1.2,2.8c0.2,1.1,0.3,2.3,0.3,3.6V59c0,0.5,0,0.9,0.1,1.1c0,0.3,0.1,0.5,0.2,0.6
		s0.3,0.2,0.5,0.3c0.2,0.1,0.5,0.1,0.9,0.1c0.4,0,0.6,0.1,0.7,0.2c0.1,0.1,0.2,0.3,0.2,0.5v2c0,0.5-0.4,0.9-1.2,1
		c-0.4,0.1-0.8,0.1-1.2,0.2s-0.8,0.1-1.1,0.1c-1.1,0-2-0.2-2.7-0.6C158.2,64.2,157.7,63.4,157.4,62.3L157.4,62.3z M157.1,54.3h-5.9
		c-1.2,0-2.2,0.3-2.9,0.8c-0.7,0.6-1.1,1.6-1.1,3.2c0,1.1,0.2,1.8,0.6,2.2c0.4,0.4,1.2,0.6,2.3,0.6c0.5,0,1.1-0.1,1.7-0.2
		c0.6-0.1,1.2-0.3,1.8-0.5c0.6-0.2,1.2-0.5,1.8-0.7c0.6-0.3,1.1-0.5,1.5-0.8V54.3z"/>
	<path class="st2" d="M187.9,65h-3.4c-0.4,0-0.6-0.1-0.7-0.2c-0.1-0.2-0.2-0.4-0.2-0.7v-1.5l-0.1,0c-0.5,0.3-1,0.6-1.7,1
		s-1.3,0.6-2,0.9c-0.7,0.3-1.4,0.5-2.2,0.7c-0.8,0.2-1.5,0.3-2.2,0.3c-1.6,0-2.9-0.2-3.9-0.7c-0.9-0.4-1.7-1.1-2.1-1.9
		c-0.5-0.8-0.8-1.7-0.9-2.8s-0.2-2.3-0.2-3.5V42.4c0-0.6,0.3-1,0.9-1h3.5c0.6,0,0.9,0.3,0.9,1v13.5c0,0.7,0,1.4,0.1,2
		s0.3,1.1,0.5,1.5c0.3,0.4,0.6,0.7,1.1,0.9c0.4,0.2,1,0.3,1.8,0.3c0.5,0,1.1-0.1,1.7-0.2c0.6-0.2,1.2-0.4,1.8-0.6
		c0.6-0.2,1.2-0.5,1.7-0.7c0.5-0.2,0.9-0.4,1.2-0.6v-16c0-0.3,0.1-0.5,0.2-0.7c0.1-0.2,0.4-0.3,0.7-0.3h3.4c0.6,0,0.9,0.3,0.9,1
		v21.6C188.8,64.7,188.5,65,187.9,65z"/>
	<path class="st2" d="M211.5,57.9c0,1.4-0.3,2.6-0.8,3.5c-0.5,0.9-1.3,1.7-2.2,2.3c-0.9,0.6-1.9,1-3.1,1.2c-1.2,0.3-2.4,0.4-3.6,0.4
		c-1.2,0-2.5-0.1-3.9-0.3c-1.4-0.2-2.6-0.4-3.5-0.8c-0.5-0.2-0.8-0.4-0.9-0.6c-0.1-0.2-0.2-0.6-0.1-0.9l0.3-1.6
		c0.1-0.4,0.2-0.6,0.4-0.7c0.2-0.1,0.5-0.1,0.9,0c0.5,0.1,1.1,0.2,1.7,0.2c0.6,0.1,1.2,0.1,1.9,0.2c0.6,0,1.2,0.1,1.8,0.1
		c0.6,0,1,0,1.5,0c1.5,0,2.6-0.2,3.3-0.6c0.7-0.4,1-1.1,1-2.1c0-0.5-0.1-1-0.2-1.3c-0.1-0.4-0.3-0.6-0.6-0.9
		c-0.3-0.2-0.7-0.4-1.2-0.6c-0.5-0.1-1.1-0.3-1.9-0.4c-1.2-0.2-2.3-0.4-3.4-0.6c-1.1-0.3-2-0.6-2.8-1.1c-0.8-0.5-1.5-1.2-1.9-2
		c-0.5-0.8-0.7-1.9-0.7-3.2c0-2.4,0.8-4.2,2.5-5.4c1.7-1.2,3.8-1.8,6.5-1.8c0.5,0,1,0,1.7,0c0.6,0,1.3,0.1,1.9,0.2
		c0.7,0.1,1.3,0.2,1.9,0.3c0.6,0.1,1.2,0.3,1.7,0.5c0.8,0.3,1.1,0.8,1,1.4l-0.4,1.7c-0.1,0.4-0.2,0.6-0.4,0.6
		c-0.2,0.1-0.5,0.1-0.9,0c-1-0.1-2.1-0.2-3.4-0.4c-1.2-0.1-2.3-0.2-3.2-0.2c-1.5,0-2.6,0.2-3,0.6s-0.7,1.1-0.7,2
		c0,0.9,0.3,1.5,0.9,1.8s1.7,0.5,3.1,0.8c1.2,0.2,2.2,0.4,3.3,0.6c1,0.3,2,0.6,2.8,1.2c0.8,0.5,1.4,1.2,1.9,2.1
		C211.3,55.3,211.5,56.5,211.5,57.9z"/>
	<path class="st2" d="M233.5,57.9c0,1.4-0.3,2.6-0.8,3.5s-1.3,1.7-2.2,2.3c-0.9,0.6-1.9,1-3.1,1.2c-1.2,0.3-2.4,0.4-3.6,0.4
		c-1.2,0-2.5-0.1-3.9-0.3c-1.4-0.2-2.6-0.4-3.5-0.8c-0.5-0.2-0.8-0.4-0.9-0.6c-0.1-0.2-0.2-0.6-0.1-0.9l0.3-1.6
		c0.1-0.4,0.2-0.6,0.4-0.7c0.2-0.1,0.5-0.1,0.9,0c0.5,0.1,1.1,0.2,1.7,0.2c0.6,0.1,1.2,0.1,1.9,0.2c0.6,0,1.2,0.1,1.8,0.1
		c0.6,0,1,0,1.5,0c1.5,0,2.6-0.2,3.3-0.6c0.7-0.4,1-1.1,1-2.1c0-0.5-0.1-1-0.2-1.3c-0.1-0.4-0.3-0.6-0.6-0.9
		c-0.3-0.2-0.7-0.4-1.2-0.6c-0.5-0.1-1.1-0.3-1.9-0.4c-1.2-0.2-2.3-0.4-3.4-0.6c-1.1-0.3-2-0.6-2.8-1.1c-0.8-0.5-1.5-1.2-1.9-2
		c-0.5-0.8-0.7-1.9-0.7-3.2c0-2.4,0.8-4.2,2.5-5.4c1.7-1.2,3.8-1.8,6.5-1.8c0.5,0,1,0,1.7,0c0.6,0,1.3,0.1,1.9,0.2
		c0.7,0.1,1.3,0.2,1.9,0.3c0.6,0.1,1.2,0.3,1.7,0.5c0.8,0.3,1.1,0.8,1,1.4l-0.4,1.7c-0.1,0.4-0.2,0.6-0.4,0.6
		c-0.2,0.1-0.5,0.1-0.9,0c-1-0.1-2.1-0.2-3.4-0.4c-1.2-0.1-2.3-0.2-3.2-0.2c-1.5,0-2.6,0.2-3,0.6s-0.7,1.1-0.7,2
		c0,0.9,0.3,1.5,0.9,1.8s1.7,0.5,3.1,0.8c1.2,0.2,2.2,0.4,3.3,0.6c1,0.3,2,0.6,2.8,1.2c0.8,0.5,1.4,1.2,1.9,2.1
		C233.3,55.3,233.5,56.5,233.5,57.9z"/>
	<path class="st2" d="M132,104.3c-1.2,0.9-2.6,1.7-4.1,2.3s-3.1,0.9-4.7,0.9c-1.3,0-2.3-0.2-3.2-0.5s-1.5-0.8-2-1.4
		c-0.5-0.6-0.8-1.3-1.1-2.1c-0.2-0.8-0.3-1.8-0.3-2.8c0-2.8,0.7-4.9,2.2-6.1s3.8-1.9,6.8-1.9h6.1v-1.3c0-0.7-0.1-1.3-0.2-1.8
		c-0.1-0.5-0.4-0.9-0.8-1.2c-0.4-0.3-0.9-0.5-1.5-0.7c-0.6-0.1-1.5-0.2-2.4-0.2c-0.4,0-0.9,0-1.4,0c-0.6,0-1.1,0.1-1.7,0.1
		c-0.6,0-1.2,0.1-1.8,0.1c-0.6,0.1-1.1,0.1-1.6,0.1c-0.5,0.1-0.8,0.1-1,0c-0.2,0-0.3-0.2-0.4-0.6l-0.4-1.8c-0.1-0.3,0-0.6,0.1-0.8
		s0.5-0.4,1-0.6c0.5-0.2,1.1-0.3,1.8-0.5c0.7-0.1,1.4-0.2,2.2-0.3s1.5-0.1,2.2-0.2c0.7,0,1.4-0.1,1.9-0.1c2.1,0,3.7,0.2,5,0.6
		c1.2,0.4,2.2,1,2.8,1.8c0.6,0.8,1.1,1.7,1.2,2.8c0.2,1.1,0.3,2.3,0.3,3.6v9.3c0,0.5,0,0.9,0.1,1.1c0,0.3,0.1,0.5,0.2,0.6
		s0.3,0.2,0.5,0.3c0.2,0.1,0.5,0.1,0.9,0.1c0.4,0,0.6,0.1,0.7,0.2c0.1,0.1,0.2,0.3,0.2,0.5v2c0,0.5-0.4,0.9-1.2,1
		c-0.4,0.1-0.8,0.1-1.2,0.2s-0.8,0.1-1.1,0.1c-1.1,0-2-0.2-2.7-0.6C132.8,106.2,132.3,105.4,132,104.3L132,104.3z M131.7,96.3h-5.9
		c-1.2,0-2.2,0.3-2.9,0.8c-0.7,0.6-1.1,1.6-1.1,3.2c0,1.1,0.2,1.8,0.6,2.2c0.4,0.4,1.2,0.6,2.3,0.6c0.5,0,1.1-0.1,1.7-0.2
		c0.6-0.1,1.2-0.3,1.8-0.5c0.6-0.2,1.2-0.5,1.8-0.7c0.6-0.3,1.1-0.5,1.5-0.8V96.3z"/>
	<path class="st2" d="M148.9,101c0,0.7,0.2,1.2,0.5,1.4c0.3,0.2,0.9,0.3,1.8,0.3c0.4,0,0.6,0.1,0.7,0.1c0.1,0.1,0.2,0.2,0.3,0.5
		l0.2,2.4c0,0.4-0.2,0.7-0.6,0.9c-0.4,0.2-1,0.4-1.6,0.5c-0.6,0.1-1.1,0.1-1.5,0.1c-1.8,0-3.1-0.4-3.8-1.2c-0.7-0.8-1.1-2-1.1-3.7
		V74.1c0-0.6,0.3-0.9,0.9-0.9h3.4c0.6,0,0.9,0.3,0.9,0.9V101z"/>
	<path class="st2" d="M165.9,83c1.5,0,3.1,0.1,4.8,0.3c1.7,0.2,3.1,0.5,4.3,0.9c0.6,0.2,0.9,0.5,1.1,0.9c0.1,0.4,0.2,0.8,0.2,1.3
		v20.3c0,1.4-0.1,2.7-0.3,3.8c-0.2,1.2-0.6,2.2-1.3,3.1c-0.7,0.9-1.7,1.5-3,2c-1.3,0.5-3.1,0.7-5.4,0.7c-1.2,0-2.6-0.1-4.1-0.2
		s-2.7-0.4-3.7-0.9c-0.5-0.2-0.8-0.4-0.9-0.6c-0.1-0.2-0.1-0.5,0-0.7l0.4-1.8c0.1-0.4,0.2-0.6,0.4-0.7c0.2-0.1,0.5-0.1,1,0
		c1.1,0.2,2.2,0.3,3.4,0.4c1.2,0.1,2.3,0.1,3.2,0.1c1,0,1.9-0.1,2.5-0.2s1.2-0.4,1.6-0.7s0.6-0.8,0.8-1.3c0.1-0.5,0.2-1.2,0.2-1.9
		v-1.6c-1.2,0.4-2.3,0.8-3.3,0.9c-1,0.2-1.8,0.2-2.6,0.2c-2,0-3.6-0.3-4.8-0.9s-2.2-1.4-3-2.4c-0.7-1-1.2-2.3-1.5-3.7
		c-0.3-1.5-0.4-3.1-0.4-4.9c0-1.9,0.2-3.6,0.5-5.1c0.3-1.5,0.9-2.8,1.7-3.9c0.8-1.1,1.9-1.9,3.2-2.5C162.1,83.3,163.8,83,165.9,83z
		 M160.9,94.9c0,1.5,0.1,2.7,0.3,3.7c0.2,1,0.4,1.8,0.8,2.4c0.4,0.6,0.8,1,1.4,1.3c0.6,0.3,1.3,0.4,2.1,0.4c0.7,0,1.5-0.1,2.5-0.2
		c0.9-0.1,1.9-0.3,3-0.6V88.1c-0.7-0.1-1.5-0.2-2.4-0.3c-0.8-0.1-1.7-0.1-2.4-0.1c-0.7,0-1.4,0.1-2.1,0.2c-0.6,0.2-1.2,0.5-1.7,1
		c-0.5,0.5-0.9,1.2-1.1,2.2C161,92.1,160.9,93.3,160.9,94.9z"/>
	<path class="st2" d="M201.5,94.8c0,1.4-0.1,2.8-0.3,4.3c-0.2,1.5-0.6,2.8-1.3,4.1c-0.7,1.2-1.8,2.2-3.2,3c-1.4,0.8-3.4,1.2-5.8,1.2
		c-2.4,0-4.3-0.4-5.7-1.2c-1.4-0.8-2.4-1.8-3.1-3c-0.7-1.2-1.1-2.6-1.3-4.1c-0.2-1.5-0.2-2.9-0.2-4.3c0-1.1,0.1-2.4,0.3-3.7
		c0.2-1.4,0.7-2.7,1.4-3.9c0.7-1.2,1.7-2.2,3.1-3c1.4-0.8,3.2-1.2,5.5-1.2c2.3,0,4.2,0.4,5.6,1.1c1.4,0.7,2.5,1.6,3.2,2.8
		c0.7,1.1,1.2,2.4,1.5,3.8C201.4,92,201.5,93.4,201.5,94.8z M196.2,95.2c0-1.3-0.1-2.4-0.2-3.3c-0.1-0.9-0.4-1.7-0.8-2.4
		c-0.4-0.6-0.9-1.1-1.6-1.4c-0.7-0.3-1.6-0.5-2.6-0.5c-1,0-1.9,0.2-2.5,0.5c-0.6,0.3-1.1,0.8-1.5,1.4c-0.4,0.6-0.6,1.4-0.8,2.4
		c-0.1,0.9-0.2,2-0.2,3.3c0,1.3,0.1,2.4,0.2,3.3c0.1,0.9,0.4,1.7,0.7,2.4s0.8,1.1,1.5,1.4c0.6,0.3,1.5,0.5,2.5,0.5
		c1.1,0,2-0.2,2.7-0.5c0.7-0.3,1.2-0.8,1.6-1.4c0.4-0.6,0.6-1.4,0.8-2.4C196.1,97.6,196.2,96.5,196.2,95.2z"/>
	<path class="st2" d="M212.5,106.1c0,0.6-0.3,0.9-0.9,0.9H208c-0.6,0-0.9-0.3-0.9-0.9V84.4c0-0.6,0.3-1,0.9-1h3.4c0.6,0,1,0.3,1,1
		v2.1l0.1,0.1c0.4-0.3,0.8-0.7,1.4-1c0.6-0.4,1.2-0.7,1.8-1c0.7-0.3,1.3-0.6,2-0.8c0.7-0.3,1.3-0.4,1.9-0.5c0.3-0.1,0.6,0,0.8,0
		c0.2,0.1,0.3,0.4,0.4,0.8l0.3,3.2c0,0.4,0,0.6,0,0.8c-0.1,0.2-0.4,0.3-0.9,0.4c-0.7,0.1-1.4,0.3-2.1,0.5c-0.7,0.2-1.5,0.4-2.2,0.6
		c-0.7,0.2-1.4,0.4-2,0.6c-0.6,0.2-1.1,0.4-1.5,0.6V106.1z"/>
	<path class="st2" d="M229.9,77.2c0,0.4,0,0.7-0.1,1.1s-0.2,0.6-0.4,0.9c-0.2,0.3-0.5,0.5-0.9,0.6c-0.4,0.1-0.9,0.2-1.5,0.2
		c-0.6,0-1.1-0.1-1.5-0.2s-0.6-0.4-0.8-0.6c-0.2-0.3-0.3-0.6-0.4-0.9c-0.1-0.3-0.1-0.7-0.1-1c0-0.8,0.2-1.4,0.6-1.9
		c0.4-0.5,1.1-0.8,2.3-0.8c1.2,0,2,0.2,2.3,0.7C229.7,75.7,229.9,76.4,229.9,77.2z M229.6,106.1c0,0.3-0.1,0.5-0.2,0.6
		c-0.1,0.2-0.3,0.3-0.7,0.3h-3.4c-0.6,0-1-0.3-1-0.9V84.4c0-0.6,0.3-0.9,1-0.9h3.4c0.4,0,0.6,0.1,0.7,0.3c0.1,0.2,0.2,0.4,0.2,0.6
		V106.1z"/>
	<path class="st2" d="M250.2,105.2c0.1,0.5-0.1,0.9-0.6,1.2c-0.4,0.2-0.9,0.4-1.5,0.5c-0.6,0.1-1.1,0.2-1.7,0.3
		c-0.6,0.1-1.2,0.1-1.7,0.2c-0.5,0-1,0-1.4,0c-1.4,0-2.5-0.2-3.3-0.6c-0.8-0.4-1.4-1-1.8-1.7c-0.4-0.7-0.6-1.5-0.7-2.4
		c-0.1-0.9-0.1-1.9-0.1-2.9v-12h-2.4c-0.4,0-0.6-0.1-0.7-0.2c-0.1-0.1-0.2-0.4-0.2-0.7v-2.4c0-0.3,0.1-0.6,0.2-0.7s0.4-0.2,0.7-0.2
		h2.4v-4.9c0-0.4,0.1-0.6,0.3-0.7c0.2-0.1,0.4-0.2,0.6-0.3l3.2-0.9c0.6-0.2,1,0,1,0.6v6.3h5.1c0.4,0,0.6,0.1,0.7,0.2
		c0.1,0.2,0.2,0.4,0.2,0.7v2.4c0,0.3-0.1,0.6-0.2,0.7c-0.1,0.1-0.4,0.2-0.7,0.2h-5.1v12c0,0.6,0,1.1,0.1,1.5
		c0.1,0.4,0.3,0.6,0.5,0.8c0.2,0.2,0.6,0.3,1,0.3c0.4,0,0.9,0,1.6,0c0.4,0,0.9,0,1.5,0c0.7,0,1.2-0.1,1.7-0.1c0.3,0,0.4,0,0.6,0.1
		c0.1,0.1,0.2,0.3,0.3,0.6L250.2,105.2z"/>
	<path class="st2" d="M272.4,107H269c-0.6,0-1-0.3-1-0.9c0-2.3,0-4.6,0-6.9c0-2.3,0-4.6,0-6.9c0-1.3-0.2-2.4-0.6-3.2
		c-0.4-0.8-1.4-1.2-2.8-1.2c-0.5,0-1,0.1-1.7,0.3c-0.6,0.2-1.2,0.4-1.9,0.6c-0.6,0.2-1.2,0.5-1.8,0.7c-0.5,0.3-1,0.4-1.3,0.6v16.2
		c0,0.3-0.1,0.5-0.2,0.7c-0.1,0.2-0.4,0.2-0.7,0.2h-3.4c-0.6,0-0.9-0.3-0.9-0.9v-32c0-0.6,0.3-0.9,0.9-0.9h3.4c0.6,0,1,0.3,1,0.9
		l0,11.6c0.4-0.3,0.9-0.5,1.5-0.8c0.6-0.3,1.3-0.6,2-0.9c0.7-0.3,1.4-0.5,2.2-0.7c0.8-0.2,1.5-0.3,2.3-0.3c1.7,0,3,0.2,3.9,0.7
		c1,0.5,1.7,1.2,2.2,2c0.5,0.8,0.8,1.8,1,2.9s0.2,2.3,0.2,3.5v13.9C273.4,106.7,273,107,272.4,107z"/>
	<path class="st2" d="M312.7,106.8c-0.1,0.2-0.3,0.2-0.7,0.2h-3.5c-0.6,0-0.9-0.3-0.9-0.9V92.4c0-1.8-0.2-3-0.7-3.6
		c-0.5-0.6-1.3-0.9-2.5-0.9c-0.4,0-1,0.1-1.5,0.2c-0.6,0.2-1.1,0.3-1.7,0.6c-0.6,0.2-1.1,0.4-1.6,0.7c-0.5,0.3-1,0.5-1.3,0.7
		c0,0.3,0,0.6,0,1c0,0.4,0,0.9,0,1.4v13.6c0,0.3-0.1,0.5-0.2,0.7c-0.1,0.2-0.4,0.2-0.7,0.2h-3.5c-0.5,0-0.8-0.3-0.8-0.9V92.2
		c0-1.5-0.2-2.6-0.7-3.3c-0.4-0.7-1.3-1.1-2.5-1.1c-0.4,0-0.9,0.1-1.4,0.2c-0.5,0.1-1.1,0.3-1.6,0.5c-0.6,0.2-1.1,0.5-1.7,0.7
		c-0.5,0.3-1,0.5-1.5,0.7v16c0,0.6-0.3,0.9-0.9,0.9h-3.5c-0.6,0-0.9-0.3-0.9-0.9V84.4c0-0.6,0.3-1,0.9-1h3.4c0.6,0,1,0.3,1,1v1.4
		l0,0c0.5-0.3,1-0.6,1.5-1c0.5-0.3,1.1-0.6,1.8-0.9c0.6-0.3,1.3-0.5,1.9-0.6c0.6-0.2,1.3-0.3,2-0.3c1.4,0,2.6,0.2,3.8,0.6
		c1.1,0.4,2.1,1.3,2.8,2.7c1.2-0.9,2.5-1.7,4-2.4c1.4-0.7,2.9-1,4.5-1c1.6,0,2.8,0.2,3.7,0.7c0.9,0.5,1.6,1.1,2.1,1.9
		c0.5,0.8,0.8,1.8,0.9,2.9c0.1,1.1,0.2,2.2,0.2,3.4v14.1C312.8,106.4,312.8,106.6,312.7,106.8z"/>
	<path class="st2" d="M324.2,77.2c0,0.4,0,0.7-0.1,1.1c-0.1,0.3-0.2,0.6-0.4,0.9c-0.2,0.3-0.5,0.5-0.9,0.6c-0.4,0.1-0.9,0.2-1.5,0.2
		c-0.6,0-1.1-0.1-1.5-0.2c-0.4-0.2-0.6-0.4-0.8-0.6c-0.2-0.3-0.3-0.6-0.4-0.9c-0.1-0.3-0.1-0.7-0.1-1c0-0.8,0.2-1.4,0.6-1.9
		c0.4-0.5,1.1-0.8,2.3-0.8c1.2,0,2,0.2,2.3,0.7C324,75.7,324.2,76.4,324.2,77.2z M323.9,106.1c0,0.3-0.1,0.5-0.2,0.6
		c-0.1,0.2-0.3,0.3-0.7,0.3h-3.4c-0.6,0-1-0.3-1-0.9V84.4c0-0.6,0.3-0.9,1-0.9h3.4c0.4,0,0.6,0.1,0.7,0.3c0.1,0.2,0.2,0.4,0.2,0.6
		V106.1z"/>
	<path class="st2" d="M347.7,104.8c0.1,0.4,0.1,0.6,0,0.9c-0.1,0.2-0.4,0.4-0.8,0.6c-0.9,0.4-2.1,0.7-3.5,0.8
		c-1.4,0.2-2.7,0.3-3.8,0.3c-2.2,0-4-0.3-5.4-1s-2.4-1.6-3.1-2.7c-0.7-1.1-1.2-2.4-1.4-3.9c-0.2-1.5-0.3-3-0.3-4.7
		c0-1.5,0.1-2.9,0.4-4.4c0.2-1.5,0.7-2.8,1.4-3.9c0.7-1.1,1.8-2.1,3.1-2.8c1.4-0.7,3.1-1.1,5.4-1.1c0.5,0,1.1,0,1.8,0
		c0.7,0,1.3,0.1,2,0.2c0.7,0.1,1.3,0.2,1.9,0.4s1.2,0.3,1.7,0.6c0.6,0.3,0.8,0.7,0.7,1.4l-0.3,1.9c-0.1,0.4-0.3,0.6-0.5,0.6
		c-0.2,0.1-0.6,0.1-1,0c-1-0.1-2-0.2-3-0.3c-1-0.1-2-0.1-2.8-0.1c-2,0-3.3,0.6-4.1,1.7c-0.8,1.1-1.2,3-1.2,5.6
		c0,1.5,0.1,2.7,0.3,3.7c0.2,1,0.5,1.8,0.9,2.4c0.4,0.6,1,1,1.6,1.3c0.7,0.2,1.5,0.4,2.4,0.4c0.7,0,1.7,0,2.9-0.1
		c1.2-0.1,2.3-0.2,3.3-0.3c0.4-0.1,0.7-0.1,0.9,0c0.2,0.1,0.3,0.3,0.4,0.7L347.7,104.8z"/>
</g>
</svg>
