<svg width="80" height="73" viewBox="0 0 80 73" fill="none" xmlns="http://www.w3.org/2000/svg">
<path d="M14.5939 57.5814C14.5939 57.5814 -16.8185 45.1206 12.528 28.3131L55.7473 3.56118C55.7473 3.56118 80.8896 -10.8379 79.975 18.2715L79.0178 48.7376C79.0178 48.7376 77.9518 82.7132 46.5393 70.2546L14.5918 57.5814H14.5939Z" fill="#00CA85"/>
<path d="M33.8026 38.3698C33.8026 37.6313 33.6854 36.9681 33.453 36.3778C33.2206 35.7917 32.9051 35.2937 32.5042 34.8859C32.1056 34.4781 31.6344 34.1647 31.095 33.9479C30.5556 33.7311 29.9821 33.6216 29.3766 33.6216C28.7712 33.6216 28.2019 33.7311 27.6668 33.9479C27.1338 34.1647 26.6648 34.4781 26.264 34.8859C25.8653 35.2937 25.5498 35.7917 25.3174 36.3778C25.085 36.9659 24.9677 37.6292 24.9677 38.3698C24.9677 39.1103 25.085 39.7242 25.3174 40.3102C25.5498 40.8984 25.8653 41.3964 26.264 41.8107C26.6648 42.225 27.1317 42.5448 27.6668 42.7745C28.2019 43.002 28.7712 43.1179 29.3766 43.1179C29.9821 43.1179 30.5535 43.002 31.095 42.7745C31.6344 42.5448 32.1056 42.225 32.5042 41.8107C32.9029 41.3985 33.2206 40.8984 33.453 40.3102C33.6854 39.7221 33.8026 39.076 33.8026 38.3698ZM24.94 53.9151H20.4863V29.79H21.5544L23.3197 31.8936C23.7184 31.5137 24.1554 31.1552 24.6309 30.8182C25.1063 30.4812 25.6009 30.1892 26.1147 29.9445C26.6264 29.6998 27.1594 29.5066 27.7094 29.365C28.2595 29.2254 28.8159 29.1546 29.3766 29.1546C30.5983 29.1546 31.7453 29.3757 32.8198 29.8157C33.8943 30.2558 34.8345 30.8783 35.6404 31.6832C36.4441 32.4882 37.0794 33.4584 37.5442 34.594C38.0069 35.7316 38.2414 36.9895 38.2414 38.3698C38.2414 39.75 38.009 41.0959 37.5442 42.2421C37.0794 43.3905 36.4462 44.3629 35.6404 45.1615C34.8366 45.9621 33.8964 46.5739 32.8198 46.9968C31.7453 47.4218 30.5983 47.6321 29.3766 47.6321C28.9886 47.6321 28.6027 47.5892 28.219 47.5012C27.8352 47.4132 27.4579 47.2973 27.0848 47.1492C26.7117 47.0032 26.345 46.8379 25.9847 46.6533C25.6222 46.4687 25.2747 46.2777 24.94 46.0823V53.9108V53.9151Z" fill="white"/>
<path d="M45.1343 47.6514H40.6807V23.2322H45.1343V38.6295L51.7285 30.215H56.8175L51.0655 37.4875L56.8175 47.6514H51.7285L48.2129 41.3062L45.1343 45.4147V47.6514Z" fill="white"/>
<path d="M63.2257 47.645L56.6357 30.215H61.6523L65.445 41.0508L69.2144 30.2107L74.2991 30.2214L67.641 47.645H63.2257Z" fill="white"/>
</svg>
